G04*
G04 #@! TF.GenerationSoftware,Altium Limited,Altium Designer,19.1.9 (167)*
G04*
G04 Layer_Color=16711935*
%FSLAX42Y42*%
%MOMM*%
G71*
G01*
G75*
%ADD14O,2.20X2.20*%
G04:AMPARAMS|DCode=15|XSize=1.7mm|YSize=2.2mm|CornerRadius=0.48mm|HoleSize=0mm|Usage=FLASHONLY|Rotation=270.000|XOffset=0mm|YOffset=0mm|HoleType=Round|Shape=RoundedRectangle|*
%AMROUNDEDRECTD15*
21,1,1.70,1.25,0,0,270.0*
21,1,0.75,2.20,0,0,270.0*
1,1,0.95,-0.63,-0.38*
1,1,0.95,-0.63,0.38*
1,1,0.95,0.63,0.38*
1,1,0.95,0.63,-0.38*
%
%ADD15ROUNDEDRECTD15*%
%ADD16C,5.20*%
%ADD17O,2.20X2.20*%
%ADD18C,1.47*%
D14*
X6096Y9652D02*
D03*
X5334D02*
D03*
X5080D02*
D03*
X4826D02*
D03*
X8282Y5038D02*
D03*
Y5292D02*
D03*
Y5546D02*
D03*
X7774D02*
D03*
Y5292D02*
D03*
Y5038D02*
D03*
X8028Y5546D02*
D03*
Y5292D02*
D03*
Y5038D02*
D03*
X8004Y6392D02*
D03*
Y6646D02*
D03*
Y6900D02*
D03*
X7750Y6392D02*
D03*
Y6646D02*
D03*
Y6900D02*
D03*
D15*
X7900Y8400D02*
D03*
Y8600D02*
D03*
Y8800D02*
D03*
Y9000D02*
D03*
Y8200D02*
D03*
X7200Y8400D02*
D03*
Y8600D02*
D03*
Y8800D02*
D03*
Y9000D02*
D03*
Y8200D02*
D03*
X6500Y8400D02*
D03*
Y8600D02*
D03*
Y8800D02*
D03*
Y9000D02*
D03*
Y8200D02*
D03*
X7200Y7000D02*
D03*
Y7200D02*
D03*
Y7400D02*
D03*
X6500Y7000D02*
D03*
Y7200D02*
D03*
Y7400D02*
D03*
X7200Y5600D02*
D03*
Y5800D02*
D03*
Y6000D02*
D03*
Y6200D02*
D03*
Y5400D02*
D03*
X6500Y5600D02*
D03*
Y5800D02*
D03*
Y6000D02*
D03*
Y6200D02*
D03*
Y5400D02*
D03*
X7900Y4000D02*
D03*
Y4200D02*
D03*
Y4400D02*
D03*
X6500Y3800D02*
D03*
Y4000D02*
D03*
Y4200D02*
D03*
Y4400D02*
D03*
X7200Y4000D02*
D03*
Y4200D02*
D03*
Y4400D02*
D03*
D16*
X8250Y9750D02*
D03*
Y3000D02*
D03*
X4000D02*
D03*
Y9750D02*
D03*
D17*
X5533Y7826D02*
D03*
Y8080D02*
D03*
Y8588D02*
D03*
Y7572D02*
D03*
Y8334D02*
D03*
Y7318D02*
D03*
X4011Y4777D02*
D03*
Y3761D02*
D03*
Y4523D02*
D03*
Y4269D02*
D03*
Y4015D02*
D03*
Y5031D02*
D03*
Y5285D02*
D03*
Y5793D02*
D03*
Y6047D02*
D03*
Y6301D02*
D03*
Y5539D02*
D03*
Y6555D02*
D03*
Y7063D02*
D03*
Y8587D02*
D03*
Y8333D02*
D03*
Y8079D02*
D03*
Y7825D02*
D03*
Y6809D02*
D03*
Y7571D02*
D03*
Y7317D02*
D03*
X5533Y4778D02*
D03*
Y3759D02*
D03*
Y4524D02*
D03*
Y4270D02*
D03*
Y4016D02*
D03*
Y5032D02*
D03*
Y6302D02*
D03*
Y7064D02*
D03*
Y6810D02*
D03*
Y6556D02*
D03*
Y6048D02*
D03*
Y5794D02*
D03*
Y5540D02*
D03*
Y5286D02*
D03*
D18*
X4699Y4953D02*
D03*
Y3175D02*
D03*
X4826Y8636D02*
D03*
X6950Y5100D02*
D03*
X4450Y4300D02*
D03*
Y4600D02*
D03*
M02*
