G04*
G04 #@! TF.GenerationSoftware,Altium Limited,Altium Designer,19.1.9 (167)*
G04*
G04 Layer_Color=32896*
%FSLAX42Y42*%
%MOMM*%
G71*
G01*
G75*
%ADD11C,0.25*%
%ADD13C,0.50*%
D11*
X7488Y4255D02*
X7575D01*
Y4190D01*
X7531Y4212D01*
X7510D01*
X7488Y4190D01*
Y4147D01*
X7510Y4125D01*
X7553D01*
X7575Y4147D01*
X7445Y4255D02*
Y4169D01*
X7401Y4125D01*
X7358Y4169D01*
Y4255D01*
X6925Y3925D02*
Y4055D01*
X6860D01*
X6838Y4034D01*
Y3990D01*
X6860Y3969D01*
X6925D01*
X6881D02*
X6838Y3925D01*
X6795Y4055D02*
X6708Y3925D01*
Y4055D02*
X6795Y3925D01*
X8238Y4255D02*
X8325D01*
Y4190D01*
X8281Y4212D01*
X8260D01*
X8238Y4190D01*
Y4147D01*
X8260Y4125D01*
X8303D01*
X8325Y4147D01*
X8195Y4255D02*
Y4169D01*
X8151Y4125D01*
X8108Y4169D01*
Y4255D01*
X6938Y8434D02*
X6960Y8455D01*
X7003D01*
X7025Y8434D01*
Y8412D01*
X7003Y8390D01*
X6960D01*
X6938Y8369D01*
Y8347D01*
X6960Y8325D01*
X7003D01*
X7025Y8347D01*
X6895Y8455D02*
Y8325D01*
X6830D01*
X6808Y8347D01*
Y8434D01*
X6830Y8455D01*
X6895D01*
X6765Y8325D02*
Y8412D01*
X6721Y8455D01*
X6678Y8412D01*
Y8325D01*
Y8390D01*
X6765D01*
X7613Y4058D02*
X7634Y4080D01*
X7678D01*
X7699Y4058D01*
Y3972D01*
X7678Y3950D01*
X7634D01*
X7613Y3972D01*
Y4015D01*
X7656D01*
X7569Y3950D02*
Y4080D01*
X7483Y3950D01*
Y4080D01*
X7439D02*
Y3950D01*
X7374D01*
X7353Y3972D01*
Y4058D01*
X7374Y4080D01*
X7439D01*
X6913Y5408D02*
X6934Y5430D01*
X6978D01*
X6999Y5408D01*
Y5322D01*
X6978Y5300D01*
X6934D01*
X6913Y5322D01*
Y5365D01*
X6956D01*
X6869Y5300D02*
Y5430D01*
X6783Y5300D01*
Y5430D01*
X6739D02*
Y5300D01*
X6674D01*
X6653Y5322D01*
Y5408D01*
X6674Y5430D01*
X6739D01*
X6913Y5608D02*
X6934Y5630D01*
X6978D01*
X6999Y5608D01*
Y5587D01*
X6978Y5565D01*
X6934D01*
X6913Y5543D01*
Y5522D01*
X6934Y5500D01*
X6978D01*
X6999Y5522D01*
X6869Y5630D02*
X6783D01*
X6826D01*
Y5500D01*
X6739D02*
Y5630D01*
X6674D01*
X6653Y5608D01*
Y5565D01*
X6674Y5543D01*
X6739D01*
X6925Y4255D02*
X6838D01*
X6881D01*
Y4125D01*
X6795Y4255D02*
X6708Y4125D01*
Y4255D02*
X6795Y4125D01*
X6963Y3858D02*
X6984Y3880D01*
X7028D01*
X7049Y3858D01*
Y3772D01*
X7028Y3750D01*
X6984D01*
X6963Y3772D01*
Y3815D01*
X7006D01*
X6919Y3750D02*
Y3880D01*
X6833Y3750D01*
Y3880D01*
X6789D02*
Y3750D01*
X6724D01*
X6703Y3772D01*
Y3858D01*
X6724Y3880D01*
X6789D01*
X8388Y4034D02*
X8410Y4055D01*
X8453D01*
X8475Y4034D01*
Y3947D01*
X8453Y3925D01*
X8410D01*
X8388Y3947D01*
Y3990D01*
X8431D01*
X8345Y3925D02*
Y4055D01*
X8258Y3925D01*
Y4055D01*
X8215D02*
Y3925D01*
X8150D01*
X8128Y3947D01*
Y4034D01*
X8150Y4055D01*
X8215D01*
X8463Y5808D02*
X8485Y5830D01*
X8528D01*
X8550Y5808D01*
Y5722D01*
X8528Y5700D01*
X8485D01*
X8463Y5722D01*
Y5765D01*
X8507D01*
X8420Y5700D02*
Y5830D01*
X8333Y5700D01*
Y5830D01*
X8290D02*
Y5700D01*
X8225D01*
X8203Y5722D01*
Y5808D01*
X8225Y5830D01*
X8290D01*
X8033D02*
X8120D01*
Y5765D01*
X8077Y5787D01*
X8055D01*
X8033Y5765D01*
Y5722D01*
X8055Y5700D01*
X8098D01*
X8120Y5722D01*
X7990Y5830D02*
Y5743D01*
X7947Y5700D01*
X7903Y5743D01*
Y5830D01*
X8333Y6980D02*
X8420D01*
Y6915D01*
X8377Y6937D01*
X8355D01*
X8333Y6915D01*
Y6872D01*
X8355Y6850D01*
X8398D01*
X8420Y6872D01*
X8290Y6980D02*
Y6893D01*
X8247Y6850D01*
X8203Y6893D01*
Y6980D01*
X8463Y6730D02*
X8550D01*
Y6600D01*
X8463D01*
X8550Y6665D02*
X8507D01*
X8420Y6600D02*
Y6730D01*
X8333Y6600D01*
Y6730D01*
X8290Y6600D02*
Y6687D01*
X8247Y6730D01*
X8203Y6687D01*
Y6600D01*
Y6665D01*
X8290D01*
X8463Y6458D02*
X8485Y6480D01*
X8528D01*
X8550Y6458D01*
Y6372D01*
X8528Y6350D01*
X8485D01*
X8463Y6372D01*
Y6415D01*
X8507D01*
X8420Y6350D02*
Y6480D01*
X8333Y6350D01*
Y6480D01*
X8290D02*
Y6350D01*
X8225D01*
X8203Y6372D01*
Y6458D01*
X8225Y6480D01*
X8290D01*
X6824Y9080D02*
X6910D01*
Y9015D01*
X6867Y9037D01*
X6845D01*
X6824Y9015D01*
Y8972D01*
X6845Y8950D01*
X6889D01*
X6910Y8972D01*
X6780Y9080D02*
Y8993D01*
X6737Y8950D01*
X6694Y8993D01*
Y9080D01*
X7040Y8280D02*
X6954Y8150D01*
Y8280D02*
X7040Y8150D01*
X6824Y8258D02*
X6845Y8280D01*
X6889D01*
X6910Y8258D01*
Y8237D01*
X6889Y8215D01*
X6845D01*
X6824Y8193D01*
Y8172D01*
X6845Y8150D01*
X6889D01*
X6910Y8172D01*
X6780Y8280D02*
Y8150D01*
Y8215D01*
X6694D01*
Y8280D01*
Y8150D01*
X6954Y8858D02*
X6975Y8880D01*
X7019D01*
X7040Y8858D01*
Y8772D01*
X7019Y8750D01*
X6975D01*
X6954Y8772D01*
Y8815D01*
X6997D01*
X6910Y8750D02*
Y8880D01*
X6824Y8750D01*
Y8880D01*
X6780D02*
Y8750D01*
X6715D01*
X6694Y8772D01*
Y8858D01*
X6715Y8880D01*
X6780D01*
X6954Y8658D02*
X6975Y8680D01*
X7019D01*
X7040Y8658D01*
Y8637D01*
X7019Y8615D01*
X6975D01*
X6954Y8593D01*
Y8572D01*
X6975Y8550D01*
X7019D01*
X7040Y8572D01*
X6824Y8658D02*
X6845Y8680D01*
X6889D01*
X6910Y8658D01*
Y8572D01*
X6889Y8550D01*
X6845D01*
X6824Y8572D01*
X6780Y8680D02*
Y8550D01*
X6694D01*
X6913Y7480D02*
X7000D01*
Y7350D01*
X6913D01*
X7000Y7415D02*
X6957D01*
X6870Y7328D02*
X6783D01*
X6740Y7480D02*
Y7350D01*
X6675D01*
X6653Y7372D01*
Y7393D01*
X6675Y7415D01*
X6740D01*
X6675D01*
X6653Y7437D01*
Y7458D01*
X6675Y7480D01*
X6740D01*
X6913Y7280D02*
X7000D01*
Y7150D01*
X6913D01*
X7000Y7215D02*
X6957D01*
X6870Y7128D02*
X6783D01*
X6740Y7150D02*
Y7237D01*
X6697Y7280D01*
X6653Y7237D01*
Y7150D01*
Y7215D01*
X6740D01*
X6913Y7058D02*
X6935Y7080D01*
X6978D01*
X7000Y7058D01*
Y6972D01*
X6978Y6950D01*
X6935D01*
X6913Y6972D01*
Y7015D01*
X6957D01*
X6870Y6950D02*
Y7080D01*
X6783Y6950D01*
Y7080D01*
X6740D02*
Y6950D01*
X6675D01*
X6653Y6972D01*
Y7058D01*
X6675Y7080D01*
X6740D01*
X6999Y5830D02*
Y5700D01*
X6934D01*
X6913Y5722D01*
Y5808D01*
X6934Y5830D01*
X6999D01*
X6869D02*
X6826D01*
X6848D01*
Y5700D01*
X6869D01*
X6826D01*
X6761D02*
Y5830D01*
X6696D01*
X6674Y5808D01*
Y5765D01*
X6696Y5743D01*
X6761D01*
X6718D02*
X6674Y5700D01*
X6913Y6030D02*
X6999D01*
Y5900D01*
X6913D01*
X6999Y5965D02*
X6956D01*
X6869Y5900D02*
Y6030D01*
X6783Y5900D01*
Y6030D01*
X6739Y5900D02*
Y5987D01*
X6696Y6030D01*
X6653Y5987D01*
Y5900D01*
Y5965D01*
X6739D01*
X6999Y6100D02*
Y6230D01*
X6934D01*
X6913Y6208D01*
Y6165D01*
X6934Y6143D01*
X6999D01*
X6869Y6230D02*
Y6100D01*
X6826Y6143D01*
X6783Y6100D01*
Y6230D01*
X6739Y6100D02*
Y6230D01*
X6696Y6187D01*
X6653Y6230D01*
Y6100D01*
X8363Y4458D02*
X8385Y4480D01*
X8428D01*
X8450Y4458D01*
Y4372D01*
X8428Y4350D01*
X8385D01*
X8363Y4372D01*
Y4415D01*
X8407D01*
X8320Y4350D02*
Y4480D01*
X8233Y4350D01*
Y4480D01*
X8190D02*
Y4350D01*
X8125D01*
X8103Y4372D01*
Y4458D01*
X8125Y4480D01*
X8190D01*
X7613Y4458D02*
X7635Y4480D01*
X7678D01*
X7700Y4458D01*
Y4437D01*
X7678Y4415D01*
X7635D01*
X7613Y4393D01*
Y4372D01*
X7635Y4350D01*
X7678D01*
X7700Y4372D01*
X7570Y4350D02*
Y4480D01*
X7505D01*
X7483Y4458D01*
Y4415D01*
X7505Y4393D01*
X7570D01*
X7527D02*
X7483Y4350D01*
X7440Y4480D02*
Y4393D01*
X7397Y4350D01*
X7353Y4393D01*
Y4480D01*
X6813D02*
X6900D01*
Y4415D01*
X6857Y4437D01*
X6835D01*
X6813Y4415D01*
Y4372D01*
X6835Y4350D01*
X6878D01*
X6900Y4372D01*
X6770Y4480D02*
Y4393D01*
X6727Y4350D01*
X6683Y4393D01*
Y4480D01*
D13*
X7800Y9520D02*
Y9820D01*
X7650D01*
X7600Y9770D01*
Y9670D01*
X7650Y9620D01*
X7800D01*
X7700D02*
X7600Y9520D01*
X7300Y9820D02*
X7500D01*
Y9520D01*
X7300D01*
X7500Y9670D02*
X7400D01*
X7000Y9770D02*
X7050Y9820D01*
X7150D01*
X7200Y9770D01*
Y9720D01*
X7150Y9670D01*
X7050D01*
X7000Y9620D01*
Y9570D01*
X7050Y9520D01*
X7150D01*
X7200Y9570D01*
X6700Y9820D02*
X6900D01*
Y9520D01*
X6700D01*
X6900Y9670D02*
X6800D01*
X6600Y9820D02*
X6400D01*
X6500D01*
Y9520D01*
X7170Y3210D02*
X7070D01*
X7120D01*
Y2910D01*
X7170D01*
X7070D01*
X6720Y3160D02*
X6770Y3210D01*
X6870D01*
X6920Y3160D01*
Y3110D01*
X6870Y3060D01*
X6770D01*
X6720Y3010D01*
Y2960D01*
X6770Y2910D01*
X6870D01*
X6920Y2960D01*
X6620Y2910D02*
Y3210D01*
X6470D01*
X6420Y3160D01*
Y3060D01*
X6470Y3010D01*
X6620D01*
X6520D02*
X6420Y2910D01*
X6020Y3210D02*
Y2910D01*
X5820D01*
X5720D02*
Y3110D01*
X5621Y3210D01*
X5521Y3110D01*
Y2910D01*
Y3060D01*
X5720D01*
X5421Y3210D02*
Y2910D01*
X5271D01*
X5221Y2960D01*
Y3010D01*
X5271Y3060D01*
X5421D01*
X5271D01*
X5221Y3110D01*
Y3160D01*
X5271Y3210D01*
X5421D01*
M02*
