M48
;Layer_Color=9474304
;FILE_FORMAT=4:2
METRIC,LZ
;TYPE=PLATED
T1F00S00C0.75
T2F00S00C0.80
T3F00S00C1.00
T4F00S00C3.00
%
T01
X004699Y003175
X00445Y0043
Y0046
X004699Y004953
X00695Y0051
X004826Y008636
T02
X0065Y0038
Y004
Y0042
Y0044
X0072
Y0042
Y004
X0079
Y0042
Y0044
X0072Y0054
Y0056
Y0058
Y006
Y0062
X0065
Y006
Y0058
Y0056
Y0054
Y007
Y0072
Y0074
X0072
Y0072
Y007
Y0082
Y0084
Y0086
Y0088
Y009
X0079
Y0088
Y0086
Y0084
Y0082
X0065
Y0084
Y0086
Y0088
Y009
T03
X004011Y003761
X005533Y003759
X008028Y005038
X008282
Y005292
Y005546
X008028
Y005292
X008004Y006392
Y006646
Y0069
X00775
Y006646
Y006392
X007774Y005546
Y005292
Y005038
X005533Y005032
Y004778
Y004524
Y00427
Y004016
Y005286
Y00554
Y005794
Y006048
Y006302
Y006556
Y00681
Y007064
Y007318
Y007572
Y007826
X004011Y007825
Y007571
Y007317
Y007063
Y006809
Y006555
Y006301
Y006047
Y005793
Y005539
Y005285
Y005031
Y004777
Y004523
Y004269
Y004015
Y008079
Y008333
Y008587
X005533Y008588
Y008334
Y00808
X005334Y009652
X00508
X004826
X006096
T04
X004Y003
X00825
X004Y00975
X00825
M30
