G04*
G04 #@! TF.GenerationSoftware,Altium Limited,Altium Designer,19.1.9 (167)*
G04*
G04 Layer_Physical_Order=2*
G04 Layer_Color=16711680*
%FSLAX42Y42*%
%MOMM*%
G71*
G01*
G75*
%ADD13C,0.50*%
%ADD19O,2.00X2.00*%
G04:AMPARAMS|DCode=20|XSize=1.5mm|YSize=2mm|CornerRadius=0.38mm|HoleSize=0mm|Usage=FLASHONLY|Rotation=270.000|XOffset=0mm|YOffset=0mm|HoleType=Round|Shape=RoundedRectangle|*
%AMROUNDEDRECTD20*
21,1,1.50,1.25,0,0,270.0*
21,1,0.75,2.00,0,0,270.0*
1,1,0.75,-0.63,-0.38*
1,1,0.75,-0.63,0.38*
1,1,0.75,0.63,0.38*
1,1,0.75,0.63,-0.38*
%
%ADD20ROUNDEDRECTD20*%
%ADD21C,5.00*%
%ADD22O,2.00X2.00*%
%ADD23C,1.27*%
G36*
X8550Y2800D02*
X8451D01*
X8445Y2813D01*
X8469Y2841D01*
X8491Y2877D01*
X8508Y2916D01*
X8518Y2958D01*
X8521Y3000D01*
X8518Y3042D01*
X8508Y3084D01*
X8491Y3123D01*
X8469Y3159D01*
X8442Y3192D01*
X8409Y3219D01*
X8373Y3241D01*
X8334Y3258D01*
X8292Y3267D01*
X8250Y3271D01*
X8208Y3267D01*
X8166Y3258D01*
X8127Y3241D01*
X8091Y3219D01*
X8058Y3192D01*
X8031Y3159D01*
X8009Y3123D01*
X7992Y3084D01*
X7982Y3042D01*
X7979Y3000D01*
X7982Y2958D01*
X7992Y2916D01*
X8009Y2877D01*
X8031Y2841D01*
X8055Y2813D01*
X8049Y2800D01*
X4201D01*
X4195Y2813D01*
X4219Y2841D01*
X4241Y2877D01*
X4258Y2916D01*
X4267Y2958D01*
X4271Y3000D01*
X4267Y3042D01*
X4258Y3084D01*
X4241Y3123D01*
X4219Y3159D01*
X4192Y3192D01*
X4159Y3219D01*
X4123Y3241D01*
X4084Y3258D01*
X4042Y3267D01*
X4000Y3271D01*
X3958Y3267D01*
X3916Y3258D01*
X3877Y3241D01*
X3841Y3219D01*
X3808Y3192D01*
X3781Y3159D01*
X3763Y3130D01*
X3750Y3133D01*
Y9617D01*
X3763Y9620D01*
X3781Y9591D01*
X3808Y9558D01*
X3841Y9531D01*
X3877Y9509D01*
X3916Y9492D01*
X3958Y9482D01*
X4000Y9479D01*
X4042Y9482D01*
X4084Y9492D01*
X4123Y9509D01*
X4159Y9531D01*
X4192Y9558D01*
X4219Y9591D01*
X4241Y9627D01*
X4258Y9666D01*
X4267Y9708D01*
X4271Y9750D01*
X4267Y9792D01*
X4258Y9834D01*
X4241Y9873D01*
X4232Y9889D01*
X4238Y9900D01*
X8012Y9900D01*
X8018Y9889D01*
X8009Y9873D01*
X7992Y9834D01*
X7982Y9792D01*
X7979Y9750D01*
X7982Y9708D01*
X7992Y9666D01*
X8009Y9627D01*
X8031Y9591D01*
X8058Y9558D01*
X8091Y9531D01*
X8127Y9509D01*
X8166Y9492D01*
X8208Y9482D01*
X8250Y9479D01*
X8292Y9482D01*
X8334Y9492D01*
X8373Y9509D01*
X8409Y9531D01*
X8442Y9558D01*
X8469Y9591D01*
X8491Y9627D01*
X8508Y9666D01*
X8518Y9708D01*
X8521Y9750D01*
X8518Y9792D01*
X8508Y9834D01*
X8491Y9873D01*
X8482Y9889D01*
X8488Y9900D01*
X8550D01*
Y2800D01*
D02*
G37*
%LPC*%
G36*
X6116Y9776D02*
Y9672D01*
X6220D01*
X6218Y9685D01*
X6206Y9715D01*
X6185Y9741D01*
X6159Y9762D01*
X6129Y9774D01*
X6116Y9776D01*
D02*
G37*
G36*
X6076D02*
X6063Y9774D01*
X6033Y9762D01*
X6007Y9741D01*
X5986Y9715D01*
X5974Y9685D01*
X5972Y9672D01*
X6076D01*
Y9776D01*
D02*
G37*
G36*
X5334Y9773D02*
X5303Y9769D01*
X5273Y9757D01*
X5248Y9738D01*
X5229Y9713D01*
X5217Y9683D01*
X5214Y9661D01*
X5213Y9655D01*
X5201D01*
X5200Y9661D01*
X5197Y9683D01*
X5185Y9713D01*
X5166Y9738D01*
X5141Y9757D01*
X5111Y9769D01*
X5080Y9773D01*
X5049Y9769D01*
X5019Y9757D01*
X4994Y9738D01*
X4975Y9713D01*
X4963Y9683D01*
X4960Y9661D01*
X4959Y9655D01*
X4947D01*
X4946Y9661D01*
X4943Y9683D01*
X4931Y9713D01*
X4912Y9738D01*
X4887Y9757D01*
X4857Y9769D01*
X4826Y9773D01*
X4795Y9769D01*
X4765Y9757D01*
X4740Y9738D01*
X4721Y9713D01*
X4709Y9683D01*
X4705Y9652D01*
X4709Y9621D01*
X4721Y9591D01*
X4740Y9566D01*
X4765Y9547D01*
X4795Y9535D01*
X4826Y9531D01*
X4857Y9535D01*
X4887Y9547D01*
X4912Y9566D01*
X4931Y9591D01*
X4943Y9621D01*
X4946Y9643D01*
X4947Y9649D01*
X4959D01*
X4960Y9643D01*
X4963Y9621D01*
X4975Y9591D01*
X4994Y9566D01*
X5019Y9547D01*
X5049Y9535D01*
X5080Y9531D01*
X5111Y9535D01*
X5141Y9547D01*
X5166Y9566D01*
X5185Y9591D01*
X5197Y9621D01*
X5200Y9643D01*
X5201Y9649D01*
X5213D01*
X5214Y9643D01*
X5217Y9621D01*
X5229Y9591D01*
X5248Y9566D01*
X5273Y9547D01*
X5303Y9535D01*
X5334Y9531D01*
X5365Y9535D01*
X5395Y9547D01*
X5420Y9566D01*
X5439Y9591D01*
X5451Y9621D01*
X5455Y9652D01*
X5451Y9683D01*
X5439Y9713D01*
X5420Y9738D01*
X5395Y9757D01*
X5365Y9769D01*
X5334Y9773D01*
D02*
G37*
G36*
X6220Y9632D02*
X6116D01*
Y9528D01*
X6129Y9530D01*
X6159Y9542D01*
X6185Y9563D01*
X6206Y9589D01*
X6218Y9619D01*
X6220Y9632D01*
D02*
G37*
G36*
X6076D02*
X5972D01*
X5974Y9619D01*
X5986Y9589D01*
X6007Y9563D01*
X6033Y9542D01*
X6063Y9530D01*
X6076Y9528D01*
Y9632D01*
D02*
G37*
G36*
X6562Y9096D02*
X6438D01*
X6415Y9092D01*
X6396Y9079D01*
X6383Y9060D01*
X6379Y9038D01*
Y8962D01*
X6383Y8940D01*
X6396Y8921D01*
X6413Y8910D01*
X6413Y8900D01*
X6412Y8896D01*
X6392Y8883D01*
X6378Y8862D01*
X6373Y8838D01*
Y8820D01*
X6500D01*
X6627D01*
Y8838D01*
X6622Y8862D01*
X6608Y8883D01*
X6588Y8896D01*
X6587Y8900D01*
X6587Y8910D01*
X6604Y8921D01*
X6617Y8940D01*
X6621Y8962D01*
Y9038D01*
X6617Y9060D01*
X6604Y9079D01*
X6585Y9092D01*
X6562Y9096D01*
D02*
G37*
G36*
X7962D02*
X7838D01*
X7815Y9092D01*
X7796Y9079D01*
X7783Y9060D01*
X7779Y9038D01*
Y8962D01*
X7783Y8940D01*
X7796Y8921D01*
X7813Y8910D01*
X7813Y8900D01*
X7812Y8896D01*
X7792Y8883D01*
X7778Y8862D01*
X7773Y8838D01*
Y8820D01*
X7900D01*
X8027D01*
Y8838D01*
X8022Y8862D01*
X8008Y8883D01*
X7988Y8896D01*
X7987Y8900D01*
X7987Y8910D01*
X8004Y8921D01*
X8017Y8940D01*
X8021Y8962D01*
Y9038D01*
X8017Y9060D01*
X8004Y9079D01*
X7985Y9092D01*
X7962Y9096D01*
D02*
G37*
G36*
X7262D02*
X7138D01*
X7115Y9092D01*
X7096Y9079D01*
X7083Y9060D01*
X7079Y9038D01*
Y8962D01*
X7083Y8940D01*
X7096Y8921D01*
X7113Y8910D01*
X7113Y8900D01*
X7112Y8896D01*
X7092Y8883D01*
X7078Y8862D01*
X7073Y8838D01*
Y8820D01*
X7200D01*
X7327D01*
Y8838D01*
X7322Y8862D01*
X7308Y8883D01*
X7288Y8896D01*
X7287Y8900D01*
X7287Y8910D01*
X7304Y8921D01*
X7317Y8940D01*
X7321Y8962D01*
Y9038D01*
X7317Y9060D01*
X7304Y9079D01*
X7285Y9092D01*
X7262Y9096D01*
D02*
G37*
G36*
X5533Y8709D02*
X5502Y8705D01*
X5472Y8693D01*
X5447Y8673D01*
X5428Y8648D01*
X5416Y8619D01*
X5412Y8588D01*
X5416Y8556D01*
X5428Y8527D01*
X5447Y8502D01*
X5472Y8483D01*
X5502Y8471D01*
X5509Y8470D01*
Y8457D01*
X5500Y8456D01*
X5470Y8443D01*
X5443Y8423D01*
X5423Y8397D01*
X5411Y8366D01*
X5409Y8354D01*
X5533D01*
X5657D01*
X5655Y8366D01*
X5642Y8397D01*
X5622Y8423D01*
X5596Y8443D01*
X5566Y8456D01*
X5557Y8457D01*
Y8470D01*
X5564Y8471D01*
X5593Y8483D01*
X5618Y8502D01*
X5638Y8527D01*
X5650Y8556D01*
X5654Y8588D01*
X5650Y8619D01*
X5638Y8648D01*
X5618Y8673D01*
X5593Y8693D01*
X5564Y8705D01*
X5533Y8709D01*
D02*
G37*
G36*
X6627Y8780D02*
X6500D01*
X6373D01*
Y8762D01*
X6378Y8738D01*
X6392Y8717D01*
X6412Y8704D01*
X6413Y8700D01*
X6413Y8690D01*
X6396Y8679D01*
X6383Y8660D01*
X6379Y8638D01*
Y8562D01*
X6383Y8540D01*
X6396Y8521D01*
X6415Y8508D01*
X6424Y8506D01*
Y8494D01*
X6415Y8492D01*
X6396Y8479D01*
X6383Y8460D01*
X6381Y8446D01*
X6107D01*
X6090Y8442D01*
X6075Y8432D01*
X5579Y7937D01*
X5564Y7943D01*
X5542Y7946D01*
X5536Y7946D01*
Y7959D01*
X5542Y7960D01*
X5564Y7963D01*
X5593Y7975D01*
X5618Y7994D01*
X5638Y8019D01*
X5650Y8048D01*
X5654Y8080D01*
X5650Y8111D01*
X5638Y8140D01*
X5618Y8165D01*
X5593Y8185D01*
X5564Y8197D01*
X5557Y8198D01*
Y8210D01*
X5566Y8212D01*
X5596Y8224D01*
X5622Y8244D01*
X5642Y8270D01*
X5655Y8301D01*
X5657Y8314D01*
X5533D01*
X5409D01*
X5411Y8301D01*
X5423Y8270D01*
X5443Y8244D01*
X5470Y8224D01*
X5500Y8212D01*
X5509Y8210D01*
Y8198D01*
X5502Y8197D01*
X5472Y8185D01*
X5471Y8183D01*
X4985Y8668D01*
X4971Y8678D01*
X4953Y8682D01*
X4896D01*
X4886Y8696D01*
X4868Y8709D01*
X4848Y8717D01*
X4826Y8720D01*
X4804Y8717D01*
X4784Y8709D01*
X4766Y8696D01*
X4753Y8678D01*
X4745Y8658D01*
X4742Y8636D01*
X4745Y8614D01*
X4753Y8594D01*
X4766Y8576D01*
X4784Y8563D01*
X4804Y8555D01*
X4826Y8552D01*
X4848Y8555D01*
X4868Y8563D01*
X4886Y8576D01*
X4896Y8590D01*
X4934D01*
X5416Y8109D01*
X5412Y8080D01*
X5416Y8048D01*
X5428Y8019D01*
X5447Y7994D01*
X5472Y7975D01*
X5502Y7963D01*
X5524Y7960D01*
X5529Y7959D01*
Y7946D01*
X5524Y7946D01*
X5502Y7943D01*
X5472Y7931D01*
X5447Y7911D01*
X5428Y7886D01*
X5416Y7857D01*
X5412Y7826D01*
X5416Y7794D01*
X5428Y7765D01*
X5447Y7740D01*
X5472Y7721D01*
X5502Y7709D01*
X5524Y7706D01*
X5529Y7705D01*
Y7692D01*
X5524Y7692D01*
X5502Y7689D01*
X5472Y7677D01*
X5447Y7657D01*
X5428Y7632D01*
X5416Y7603D01*
X5412Y7572D01*
X5416Y7540D01*
X5428Y7511D01*
X5447Y7486D01*
X5472Y7467D01*
X5502Y7455D01*
X5524Y7452D01*
X5529Y7451D01*
Y7438D01*
X5524Y7438D01*
X5502Y7435D01*
X5472Y7423D01*
X5447Y7403D01*
X5428Y7378D01*
X5416Y7349D01*
X5412Y7318D01*
X5416Y7286D01*
X5428Y7257D01*
X5447Y7232D01*
X5472Y7213D01*
X5502Y7201D01*
X5524Y7198D01*
X5529Y7197D01*
Y7184D01*
X5524Y7184D01*
X5502Y7181D01*
X5472Y7169D01*
X5447Y7149D01*
X5428Y7124D01*
X5416Y7095D01*
X5412Y7064D01*
X5416Y7032D01*
X5428Y7003D01*
X5447Y6978D01*
X5472Y6959D01*
X5502Y6947D01*
X5524Y6944D01*
X5529Y6943D01*
Y6930D01*
X5524Y6930D01*
X5502Y6927D01*
X5472Y6915D01*
X5447Y6895D01*
X5428Y6870D01*
X5416Y6841D01*
X5412Y6810D01*
X5416Y6778D01*
X5428Y6749D01*
X5447Y6724D01*
X5472Y6705D01*
X5502Y6693D01*
X5524Y6690D01*
X5529Y6689D01*
Y6676D01*
X5524Y6676D01*
X5502Y6673D01*
X5472Y6661D01*
X5447Y6641D01*
X5428Y6616D01*
X5416Y6587D01*
X5412Y6556D01*
X5416Y6524D01*
X5428Y6495D01*
X5447Y6470D01*
X5472Y6451D01*
X5502Y6439D01*
X5524Y6436D01*
X5529Y6435D01*
Y6422D01*
X5524Y6422D01*
X5502Y6419D01*
X5472Y6407D01*
X5447Y6387D01*
X5428Y6362D01*
X5416Y6333D01*
X5412Y6302D01*
X5416Y6270D01*
X5428Y6241D01*
X5447Y6216D01*
X5472Y6197D01*
X5502Y6185D01*
X5524Y6182D01*
X5529Y6181D01*
Y6168D01*
X5524Y6168D01*
X5502Y6165D01*
X5472Y6153D01*
X5447Y6133D01*
X5428Y6108D01*
X5416Y6079D01*
X5412Y6048D01*
X5416Y6016D01*
X5428Y5987D01*
X5447Y5962D01*
X5472Y5943D01*
X5502Y5931D01*
X5524Y5928D01*
X5529Y5927D01*
Y5914D01*
X5524Y5914D01*
X5502Y5911D01*
X5472Y5899D01*
X5447Y5879D01*
X5428Y5854D01*
X5416Y5825D01*
X5412Y5794D01*
X5416Y5762D01*
X5428Y5733D01*
X5447Y5708D01*
X5472Y5689D01*
X5502Y5677D01*
X5524Y5674D01*
X5529Y5673D01*
Y5660D01*
X5524Y5660D01*
X5502Y5657D01*
X5472Y5645D01*
X5447Y5625D01*
X5428Y5600D01*
X5416Y5571D01*
X5412Y5540D01*
X5416Y5508D01*
X5428Y5479D01*
X5447Y5454D01*
X5472Y5435D01*
X5502Y5423D01*
X5524Y5420D01*
X5529Y5419D01*
Y5406D01*
X5524Y5406D01*
X5502Y5403D01*
X5472Y5391D01*
X5447Y5371D01*
X5428Y5346D01*
X5416Y5317D01*
X5412Y5286D01*
X5416Y5254D01*
X5428Y5225D01*
X5447Y5200D01*
X5472Y5181D01*
X5502Y5169D01*
X5524Y5166D01*
X5529Y5165D01*
Y5152D01*
X5524Y5152D01*
X5502Y5149D01*
X5472Y5137D01*
X5447Y5117D01*
X5428Y5092D01*
X5416Y5063D01*
X5412Y5032D01*
X5416Y5000D01*
X5428Y4971D01*
X5447Y4946D01*
X5472Y4927D01*
X5502Y4915D01*
X5524Y4912D01*
X5529Y4911D01*
Y4898D01*
X5524Y4898D01*
X5502Y4895D01*
X5472Y4883D01*
X5447Y4863D01*
X5428Y4838D01*
X5416Y4809D01*
X5412Y4778D01*
X5416Y4746D01*
X5428Y4717D01*
X5447Y4692D01*
X5472Y4673D01*
X5502Y4661D01*
X5524Y4658D01*
X5529Y4657D01*
Y4644D01*
X5524Y4644D01*
X5502Y4641D01*
X5472Y4629D01*
X5447Y4609D01*
X5428Y4584D01*
X5416Y4555D01*
X5412Y4524D01*
X5416Y4492D01*
X5428Y4463D01*
X5447Y4438D01*
X5472Y4419D01*
X5502Y4407D01*
X5524Y4404D01*
X5529Y4403D01*
Y4390D01*
X5524Y4390D01*
X5502Y4387D01*
X5472Y4375D01*
X5447Y4355D01*
X5428Y4330D01*
X5416Y4301D01*
X5412Y4270D01*
X5416Y4238D01*
X5428Y4209D01*
X5447Y4184D01*
X5472Y4165D01*
X5502Y4153D01*
X5524Y4150D01*
X5529Y4149D01*
Y4136D01*
X5524Y4136D01*
X5502Y4133D01*
X5472Y4121D01*
X5447Y4101D01*
X5428Y4076D01*
X5416Y4047D01*
X5412Y4016D01*
X5416Y3984D01*
X5428Y3955D01*
X5447Y3930D01*
X5472Y3911D01*
X5502Y3899D01*
X5533Y3895D01*
X5564Y3899D01*
X5593Y3911D01*
X5618Y3930D01*
X5638Y3955D01*
X5650Y3984D01*
X5654Y4016D01*
X5650Y4047D01*
X5638Y4076D01*
X5618Y4101D01*
X5593Y4121D01*
X5564Y4133D01*
X5542Y4136D01*
X5536Y4136D01*
Y4149D01*
X5542Y4150D01*
X5564Y4153D01*
X5593Y4165D01*
X5618Y4184D01*
X5638Y4209D01*
X5650Y4238D01*
X5654Y4270D01*
X5650Y4301D01*
X5638Y4330D01*
X5618Y4355D01*
X5593Y4375D01*
X5564Y4387D01*
X5542Y4390D01*
X5536Y4390D01*
Y4403D01*
X5542Y4404D01*
X5564Y4407D01*
X5593Y4419D01*
X5618Y4438D01*
X5638Y4463D01*
X5650Y4492D01*
X5654Y4524D01*
X5650Y4555D01*
X5638Y4584D01*
X5618Y4609D01*
X5593Y4629D01*
X5564Y4641D01*
X5542Y4644D01*
X5536Y4644D01*
Y4657D01*
X5542Y4658D01*
X5564Y4661D01*
X5593Y4673D01*
X5618Y4692D01*
X5638Y4717D01*
X5650Y4746D01*
X5654Y4778D01*
X5650Y4809D01*
X5644Y4824D01*
X5932Y5112D01*
X5935Y5116D01*
X5952Y5118D01*
X5954Y5116D01*
Y4040D01*
X5665Y3751D01*
X5654Y3757D01*
X5654Y3759D01*
X5650Y3790D01*
X5638Y3820D01*
X5618Y3845D01*
X5593Y3864D01*
X5564Y3876D01*
X5533Y3880D01*
X5502Y3876D01*
X5472Y3864D01*
X5447Y3845D01*
X5428Y3820D01*
X5416Y3790D01*
X5412Y3759D01*
X5416Y3728D01*
X5428Y3699D01*
X5447Y3674D01*
X5467Y3659D01*
X5462Y3646D01*
X5419D01*
X5346Y3719D01*
Y5520D01*
X5342Y5538D01*
X5332Y5552D01*
X4122Y6763D01*
X4128Y6777D01*
X4132Y6809D01*
X4128Y6840D01*
X4116Y6869D01*
X4097Y6894D01*
X4072Y6913D01*
X4043Y6926D01*
X4020Y6928D01*
X4015Y6929D01*
Y6942D01*
X4020Y6943D01*
X4043Y6946D01*
X4072Y6958D01*
X4097Y6977D01*
X4116Y7002D01*
X4128Y7031D01*
X4132Y7063D01*
X4128Y7094D01*
X4116Y7123D01*
X4097Y7148D01*
X4072Y7167D01*
X4043Y7180D01*
X4020Y7182D01*
X4015Y7183D01*
Y7196D01*
X4020Y7197D01*
X4043Y7200D01*
X4072Y7212D01*
X4097Y7231D01*
X4116Y7256D01*
X4128Y7285D01*
X4132Y7317D01*
X4128Y7348D01*
X4116Y7377D01*
X4097Y7402D01*
X4072Y7421D01*
X4043Y7434D01*
X4020Y7436D01*
X4015Y7437D01*
Y7450D01*
X4020Y7451D01*
X4043Y7454D01*
X4072Y7466D01*
X4097Y7485D01*
X4116Y7510D01*
X4128Y7539D01*
X4132Y7571D01*
X4128Y7602D01*
X4116Y7631D01*
X4097Y7656D01*
X4072Y7675D01*
X4043Y7688D01*
X4020Y7690D01*
X4015Y7691D01*
Y7704D01*
X4020Y7705D01*
X4043Y7708D01*
X4072Y7720D01*
X4097Y7739D01*
X4116Y7764D01*
X4128Y7793D01*
X4132Y7825D01*
X4128Y7856D01*
X4116Y7885D01*
X4097Y7910D01*
X4072Y7929D01*
X4043Y7942D01*
X4020Y7944D01*
X4015Y7945D01*
Y7958D01*
X4020Y7959D01*
X4043Y7962D01*
X4072Y7974D01*
X4097Y7993D01*
X4116Y8018D01*
X4128Y8047D01*
X4132Y8079D01*
X4128Y8110D01*
X4116Y8139D01*
X4097Y8164D01*
X4072Y8183D01*
X4043Y8196D01*
X4020Y8198D01*
X4015Y8199D01*
Y8212D01*
X4020Y8213D01*
X4043Y8216D01*
X4072Y8228D01*
X4097Y8247D01*
X4116Y8272D01*
X4128Y8301D01*
X4132Y8333D01*
X4128Y8364D01*
X4116Y8393D01*
X4097Y8418D01*
X4072Y8437D01*
X4043Y8450D01*
X4020Y8452D01*
X4015Y8453D01*
Y8466D01*
X4020Y8467D01*
X4043Y8470D01*
X4072Y8482D01*
X4097Y8501D01*
X4116Y8526D01*
X4128Y8555D01*
X4132Y8587D01*
X4128Y8618D01*
X4116Y8647D01*
X4097Y8672D01*
X4072Y8691D01*
X4043Y8704D01*
X4011Y8708D01*
X3980Y8704D01*
X3951Y8691D01*
X3926Y8672D01*
X3907Y8647D01*
X3894Y8618D01*
X3890Y8587D01*
X3894Y8555D01*
X3907Y8526D01*
X3926Y8501D01*
X3951Y8482D01*
X3980Y8470D01*
X4002Y8467D01*
X4008Y8466D01*
Y8453D01*
X4002Y8452D01*
X3980Y8450D01*
X3951Y8437D01*
X3926Y8418D01*
X3907Y8393D01*
X3894Y8364D01*
X3890Y8333D01*
X3894Y8301D01*
X3907Y8272D01*
X3926Y8247D01*
X3951Y8228D01*
X3980Y8216D01*
X4002Y8213D01*
X4008Y8212D01*
Y8199D01*
X4002Y8198D01*
X3980Y8196D01*
X3951Y8183D01*
X3926Y8164D01*
X3907Y8139D01*
X3894Y8110D01*
X3890Y8079D01*
X3894Y8047D01*
X3907Y8018D01*
X3926Y7993D01*
X3951Y7974D01*
X3980Y7962D01*
X4002Y7959D01*
X4008Y7958D01*
Y7945D01*
X4002Y7944D01*
X3980Y7942D01*
X3951Y7929D01*
X3926Y7910D01*
X3907Y7885D01*
X3894Y7856D01*
X3890Y7825D01*
X3894Y7793D01*
X3907Y7764D01*
X3926Y7739D01*
X3951Y7720D01*
X3980Y7708D01*
X4002Y7705D01*
X4008Y7704D01*
Y7691D01*
X4002Y7690D01*
X3980Y7688D01*
X3951Y7675D01*
X3926Y7656D01*
X3907Y7631D01*
X3894Y7602D01*
X3890Y7571D01*
X3894Y7539D01*
X3907Y7510D01*
X3926Y7485D01*
X3951Y7466D01*
X3980Y7454D01*
X4002Y7451D01*
X4008Y7450D01*
Y7437D01*
X4002Y7436D01*
X3980Y7434D01*
X3951Y7421D01*
X3926Y7402D01*
X3907Y7377D01*
X3894Y7348D01*
X3890Y7317D01*
X3894Y7285D01*
X3907Y7256D01*
X3926Y7231D01*
X3951Y7212D01*
X3980Y7200D01*
X4002Y7197D01*
X4008Y7196D01*
Y7183D01*
X4002Y7182D01*
X3980Y7180D01*
X3951Y7167D01*
X3926Y7148D01*
X3907Y7123D01*
X3894Y7094D01*
X3890Y7063D01*
X3894Y7031D01*
X3907Y7002D01*
X3926Y6977D01*
X3951Y6958D01*
X3980Y6946D01*
X4002Y6943D01*
X4008Y6942D01*
Y6929D01*
X4002Y6928D01*
X3980Y6926D01*
X3951Y6913D01*
X3926Y6894D01*
X3907Y6869D01*
X3894Y6840D01*
X3890Y6809D01*
X3894Y6777D01*
X3907Y6748D01*
X3926Y6723D01*
X3951Y6704D01*
X3980Y6692D01*
X4002Y6689D01*
X4008Y6688D01*
Y6675D01*
X4002Y6674D01*
X3980Y6672D01*
X3951Y6659D01*
X3926Y6640D01*
X3907Y6615D01*
X3894Y6586D01*
X3890Y6555D01*
X3894Y6523D01*
X3907Y6494D01*
X3926Y6469D01*
X3951Y6450D01*
X3980Y6438D01*
X4002Y6435D01*
X4008Y6434D01*
Y6421D01*
X4002Y6420D01*
X3980Y6418D01*
X3951Y6405D01*
X3926Y6386D01*
X3907Y6361D01*
X3894Y6332D01*
X3890Y6301D01*
X3894Y6269D01*
X3907Y6240D01*
X3926Y6215D01*
X3951Y6196D01*
X3980Y6184D01*
X4002Y6181D01*
X4008Y6180D01*
Y6167D01*
X4002Y6166D01*
X3980Y6164D01*
X3951Y6151D01*
X3926Y6132D01*
X3907Y6107D01*
X3894Y6078D01*
X3890Y6047D01*
X3894Y6015D01*
X3907Y5986D01*
X3926Y5961D01*
X3951Y5942D01*
X3980Y5930D01*
X4002Y5927D01*
X4008Y5926D01*
Y5913D01*
X4002Y5912D01*
X3980Y5910D01*
X3951Y5897D01*
X3926Y5878D01*
X3907Y5853D01*
X3894Y5824D01*
X3890Y5793D01*
X3894Y5761D01*
X3907Y5732D01*
X3926Y5707D01*
X3951Y5688D01*
X3980Y5676D01*
X4002Y5673D01*
X4008Y5672D01*
Y5659D01*
X4002Y5658D01*
X3980Y5656D01*
X3951Y5643D01*
X3926Y5624D01*
X3907Y5599D01*
X3894Y5570D01*
X3890Y5539D01*
X3894Y5507D01*
X3907Y5478D01*
X3926Y5453D01*
X3951Y5434D01*
X3980Y5422D01*
X4002Y5419D01*
X4008Y5418D01*
Y5405D01*
X4002Y5404D01*
X3980Y5402D01*
X3951Y5389D01*
X3926Y5370D01*
X3907Y5345D01*
X3894Y5316D01*
X3890Y5285D01*
X3894Y5253D01*
X3907Y5224D01*
X3926Y5199D01*
X3951Y5180D01*
X3980Y5168D01*
X4002Y5165D01*
X4008Y5164D01*
Y5151D01*
X4002Y5150D01*
X3980Y5148D01*
X3951Y5135D01*
X3926Y5116D01*
X3907Y5091D01*
X3894Y5062D01*
X3890Y5031D01*
X3894Y4999D01*
X3907Y4970D01*
X3926Y4945D01*
X3951Y4926D01*
X3980Y4914D01*
X4002Y4911D01*
X4008Y4910D01*
Y4897D01*
X4002Y4896D01*
X3980Y4894D01*
X3951Y4881D01*
X3926Y4862D01*
X3907Y4837D01*
X3894Y4808D01*
X3890Y4777D01*
X3894Y4745D01*
X3907Y4716D01*
X3926Y4691D01*
X3951Y4672D01*
X3980Y4660D01*
X4002Y4657D01*
X4008Y4656D01*
Y4643D01*
X4002Y4642D01*
X3980Y4640D01*
X3951Y4627D01*
X3926Y4608D01*
X3907Y4583D01*
X3894Y4554D01*
X3890Y4523D01*
X3894Y4491D01*
X3907Y4462D01*
X3926Y4437D01*
X3951Y4418D01*
X3980Y4406D01*
X4002Y4403D01*
X4008Y4402D01*
Y4389D01*
X4002Y4388D01*
X3980Y4386D01*
X3951Y4373D01*
X3926Y4354D01*
X3907Y4329D01*
X3894Y4300D01*
X3890Y4269D01*
X3894Y4237D01*
X3907Y4208D01*
X3926Y4183D01*
X3951Y4164D01*
X3980Y4152D01*
X3987Y4151D01*
Y4138D01*
X3979Y4137D01*
X3948Y4124D01*
X3922Y4104D01*
X3902Y4078D01*
X3889Y4047D01*
X3888Y4035D01*
X4011D01*
X4135D01*
X4134Y4047D01*
X4121Y4078D01*
X4101Y4104D01*
X4075Y4124D01*
X4044Y4137D01*
X4035Y4138D01*
Y4151D01*
X4043Y4152D01*
X4072Y4164D01*
X4097Y4183D01*
X4116Y4208D01*
X4128Y4237D01*
X4132Y4269D01*
X4128Y4300D01*
X4116Y4329D01*
X4097Y4354D01*
X4072Y4373D01*
X4043Y4386D01*
X4020Y4388D01*
X4015Y4389D01*
Y4402D01*
X4020Y4403D01*
X4043Y4406D01*
X4072Y4418D01*
X4097Y4437D01*
X4116Y4462D01*
X4128Y4491D01*
X4132Y4523D01*
X4131Y4537D01*
X4143Y4543D01*
X4368Y4317D01*
X4366Y4300D01*
X4369Y4278D01*
X4377Y4258D01*
X4390Y4240D01*
X4408Y4227D01*
X4428Y4219D01*
X4450Y4216D01*
X4472Y4219D01*
X4492Y4227D01*
X4510Y4240D01*
X4523Y4258D01*
X4531Y4278D01*
X4534Y4300D01*
X4531Y4322D01*
X4523Y4342D01*
X4510Y4360D01*
X4492Y4373D01*
X4472Y4381D01*
X4450Y4384D01*
X4433Y4382D01*
X4109Y4706D01*
X4116Y4716D01*
X4128Y4745D01*
X4132Y4777D01*
X4128Y4808D01*
X4116Y4837D01*
X4097Y4862D01*
X4072Y4881D01*
X4043Y4894D01*
X4020Y4896D01*
X4015Y4897D01*
Y4910D01*
X4020Y4911D01*
X4043Y4914D01*
X4063Y4922D01*
X4368Y4617D01*
X4366Y4600D01*
X4369Y4578D01*
X4377Y4558D01*
X4390Y4540D01*
X4408Y4527D01*
X4428Y4519D01*
X4450Y4516D01*
X4472Y4519D01*
X4492Y4527D01*
X4510Y4540D01*
X4523Y4558D01*
X4531Y4578D01*
X4534Y4600D01*
X4531Y4622D01*
X4523Y4642D01*
X4510Y4660D01*
X4492Y4673D01*
X4472Y4681D01*
X4450Y4684D01*
X4433Y4682D01*
X4125Y4990D01*
X4128Y4999D01*
X4132Y5031D01*
X4128Y5062D01*
X4116Y5091D01*
X4097Y5116D01*
X4072Y5135D01*
X4043Y5148D01*
X4020Y5150D01*
X4015Y5151D01*
Y5164D01*
X4020Y5165D01*
X4043Y5168D01*
X4072Y5180D01*
X4097Y5199D01*
X4116Y5224D01*
X4128Y5253D01*
X4132Y5285D01*
X4128Y5316D01*
X4116Y5345D01*
X4097Y5370D01*
X4072Y5389D01*
X4043Y5402D01*
X4020Y5404D01*
X4015Y5405D01*
Y5418D01*
X4020Y5419D01*
X4043Y5422D01*
X4072Y5434D01*
X4097Y5453D01*
X4116Y5478D01*
X4128Y5507D01*
X4132Y5539D01*
X4128Y5570D01*
X4116Y5599D01*
X4097Y5624D01*
X4072Y5643D01*
X4043Y5656D01*
X4020Y5658D01*
X4015Y5659D01*
Y5672D01*
X4020Y5673D01*
X4043Y5676D01*
X4072Y5688D01*
X4097Y5707D01*
X4116Y5732D01*
X4128Y5761D01*
X4132Y5793D01*
X4128Y5824D01*
X4116Y5853D01*
X4097Y5878D01*
X4072Y5897D01*
X4043Y5910D01*
X4020Y5912D01*
X4015Y5913D01*
Y5926D01*
X4020Y5927D01*
X4043Y5930D01*
X4057Y5936D01*
X4954Y5039D01*
Y3650D01*
X4958Y3632D01*
X4968Y3618D01*
X5268Y3318D01*
X5282Y3308D01*
X5300Y3304D01*
X5650D01*
X5668Y3308D01*
X5682Y3318D01*
X6332Y3968D01*
X6342Y3982D01*
X6346Y4000D01*
Y4581D01*
X6854Y5089D01*
X6868Y5085D01*
X6869Y5078D01*
X6877Y5058D01*
X6890Y5040D01*
X6904Y5030D01*
Y4950D01*
X6908Y4932D01*
X6918Y4918D01*
X7668Y4168D01*
X7682Y4158D01*
X7700Y4154D01*
X7781D01*
X7783Y4140D01*
X7796Y4121D01*
X7813Y4110D01*
X7813Y4100D01*
X7812Y4096D01*
X7792Y4083D01*
X7778Y4062D01*
X7773Y4038D01*
Y4020D01*
X7900D01*
X8027D01*
Y4038D01*
X8022Y4062D01*
X8008Y4083D01*
X7988Y4096D01*
X7987Y4100D01*
X7987Y4110D01*
X8004Y4121D01*
X8017Y4140D01*
X8021Y4162D01*
Y4238D01*
X8017Y4260D01*
X8004Y4279D01*
X7987Y4290D01*
X7987Y4300D01*
X7988Y4304D01*
X8008Y4317D01*
X8022Y4338D01*
X8027Y4362D01*
Y4380D01*
X7900D01*
X7773D01*
Y4362D01*
X7778Y4338D01*
X7792Y4317D01*
X7812Y4304D01*
X7813Y4300D01*
X7813Y4290D01*
X7796Y4279D01*
X7783Y4260D01*
X7781Y4246D01*
X7719D01*
X6996Y4969D01*
Y5030D01*
X7010Y5040D01*
X7023Y5058D01*
X7031Y5078D01*
X7034Y5100D01*
X7031Y5122D01*
X7023Y5142D01*
X7010Y5160D01*
X6992Y5173D01*
X6972Y5181D01*
X6965Y5182D01*
X6961Y5196D01*
X7032Y5268D01*
X7042Y5282D01*
X7046Y5300D01*
Y5431D01*
X7062Y5448D01*
X7074Y5441D01*
X7073Y5438D01*
Y5420D01*
X7200D01*
X7327D01*
Y5438D01*
X7322Y5462D01*
X7308Y5483D01*
X7288Y5496D01*
X7287Y5500D01*
X7287Y5510D01*
X7304Y5521D01*
X7317Y5540D01*
X7321Y5562D01*
Y5638D01*
X7317Y5660D01*
X7304Y5679D01*
X7285Y5692D01*
X7276Y5694D01*
Y5706D01*
X7285Y5708D01*
X7304Y5721D01*
X7317Y5740D01*
X7321Y5762D01*
Y5838D01*
X7317Y5860D01*
X7304Y5879D01*
X7285Y5892D01*
X7276Y5894D01*
Y5906D01*
X7285Y5908D01*
X7304Y5921D01*
X7317Y5940D01*
X7321Y5962D01*
Y6038D01*
X7317Y6060D01*
X7304Y6079D01*
X7285Y6092D01*
X7276Y6094D01*
Y6106D01*
X7285Y6108D01*
X7304Y6121D01*
X7317Y6140D01*
X7321Y6162D01*
Y6238D01*
X7317Y6260D01*
X7304Y6279D01*
X7285Y6292D01*
X7262Y6296D01*
X7138D01*
X7115Y6292D01*
X7096Y6279D01*
X7083Y6260D01*
X7079Y6238D01*
Y6162D01*
X7083Y6140D01*
X7096Y6121D01*
X7115Y6108D01*
X7124Y6106D01*
Y6094D01*
X7115Y6092D01*
X7096Y6079D01*
X7083Y6060D01*
X7079Y6038D01*
Y5962D01*
X7083Y5940D01*
X7096Y5921D01*
X7115Y5908D01*
X7124Y5906D01*
Y5894D01*
X7115Y5892D01*
X7096Y5879D01*
X7083Y5860D01*
X7079Y5838D01*
Y5794D01*
X6818Y5532D01*
X6808Y5518D01*
X6804Y5500D01*
Y5319D01*
X6168Y4682D01*
X6165Y4679D01*
X6148Y4677D01*
X6146Y4678D01*
Y5281D01*
X6387Y5522D01*
X6396Y5521D01*
X6413Y5510D01*
X6413Y5500D01*
X6412Y5496D01*
X6392Y5483D01*
X6378Y5462D01*
X6373Y5438D01*
Y5420D01*
X6500D01*
X6627D01*
Y5438D01*
X6622Y5462D01*
X6608Y5483D01*
X6588Y5496D01*
X6587Y5500D01*
X6587Y5510D01*
X6604Y5521D01*
X6617Y5540D01*
X6621Y5562D01*
Y5638D01*
X6617Y5660D01*
X6604Y5679D01*
X6585Y5692D01*
X6576Y5694D01*
Y5706D01*
X6585Y5708D01*
X6604Y5721D01*
X6617Y5740D01*
X6621Y5762D01*
Y5838D01*
X6617Y5860D01*
X6604Y5879D01*
X6585Y5892D01*
X6576Y5894D01*
Y5906D01*
X6585Y5908D01*
X6604Y5921D01*
X6617Y5940D01*
X6621Y5962D01*
Y6038D01*
X6617Y6060D01*
X6604Y6079D01*
X6585Y6092D01*
X6576Y6094D01*
Y6106D01*
X6585Y6108D01*
X6604Y6121D01*
X6617Y6140D01*
X6621Y6162D01*
Y6238D01*
X6617Y6260D01*
X6604Y6279D01*
X6585Y6292D01*
X6562Y6296D01*
X6438D01*
X6415Y6292D01*
X6396Y6279D01*
X6383Y6260D01*
X6379Y6238D01*
Y6194D01*
X5868Y5682D01*
X5858Y5668D01*
X5854Y5650D01*
Y5164D01*
X5579Y4889D01*
X5564Y4895D01*
X5542Y4898D01*
X5536Y4898D01*
Y4911D01*
X5542Y4912D01*
X5564Y4915D01*
X5593Y4927D01*
X5618Y4946D01*
X5638Y4971D01*
X5650Y5000D01*
X5654Y5032D01*
X5650Y5063D01*
X5638Y5092D01*
X5618Y5117D01*
X5593Y5137D01*
X5564Y5149D01*
X5542Y5152D01*
X5536Y5152D01*
Y5165D01*
X5542Y5166D01*
X5564Y5169D01*
X5593Y5181D01*
X5618Y5200D01*
X5638Y5225D01*
X5650Y5254D01*
X5654Y5286D01*
X5650Y5317D01*
X5638Y5346D01*
X5618Y5371D01*
X5593Y5391D01*
X5564Y5403D01*
X5542Y5406D01*
X5536Y5406D01*
Y5419D01*
X5542Y5420D01*
X5564Y5423D01*
X5593Y5435D01*
X5618Y5454D01*
X5638Y5479D01*
X5650Y5508D01*
X5654Y5540D01*
X5650Y5571D01*
X5638Y5600D01*
X5618Y5625D01*
X5593Y5645D01*
X5564Y5657D01*
X5542Y5660D01*
X5536Y5660D01*
Y5673D01*
X5542Y5674D01*
X5564Y5677D01*
X5593Y5689D01*
X5618Y5708D01*
X5638Y5733D01*
X5650Y5762D01*
X5654Y5794D01*
X5650Y5825D01*
X5638Y5854D01*
X5618Y5879D01*
X5593Y5899D01*
X5564Y5911D01*
X5542Y5914D01*
X5536Y5914D01*
Y5927D01*
X5542Y5928D01*
X5564Y5931D01*
X5593Y5943D01*
X5618Y5962D01*
X5638Y5987D01*
X5650Y6016D01*
X5654Y6048D01*
X5650Y6079D01*
X5638Y6108D01*
X5618Y6133D01*
X5593Y6153D01*
X5564Y6165D01*
X5542Y6168D01*
X5536Y6168D01*
Y6181D01*
X5542Y6182D01*
X5564Y6185D01*
X5593Y6197D01*
X5618Y6216D01*
X5638Y6241D01*
X5650Y6270D01*
X5654Y6302D01*
X5650Y6333D01*
X5638Y6362D01*
X5618Y6387D01*
X5593Y6407D01*
X5564Y6419D01*
X5542Y6422D01*
X5536Y6422D01*
Y6435D01*
X5542Y6436D01*
X5564Y6439D01*
X5593Y6451D01*
X5618Y6470D01*
X5638Y6495D01*
X5650Y6524D01*
X5654Y6556D01*
X5650Y6587D01*
X5644Y6602D01*
X6196Y7154D01*
X6381D01*
X6383Y7140D01*
X6396Y7121D01*
X6413Y7110D01*
X6413Y7100D01*
X6412Y7096D01*
X6392Y7083D01*
X6378Y7062D01*
X6373Y7038D01*
Y7020D01*
X6500D01*
X6627D01*
Y7038D01*
X6622Y7062D01*
X6608Y7083D01*
X6588Y7096D01*
X6587Y7100D01*
X6587Y7110D01*
X6604Y7121D01*
X6617Y7140D01*
X6621Y7162D01*
Y7238D01*
X6617Y7260D01*
X6604Y7279D01*
X6585Y7292D01*
X6576Y7294D01*
Y7306D01*
X6585Y7308D01*
X6604Y7321D01*
X6617Y7340D01*
X6621Y7362D01*
Y7438D01*
X6617Y7460D01*
X6604Y7479D01*
X6585Y7492D01*
X6562Y7496D01*
X6438D01*
X6415Y7492D01*
X6396Y7479D01*
X6383Y7460D01*
X6381Y7446D01*
X6123D01*
X6106Y7442D01*
X6091Y7432D01*
X5579Y6921D01*
X5564Y6927D01*
X5542Y6930D01*
X5536Y6930D01*
Y6943D01*
X5542Y6944D01*
X5564Y6947D01*
X5593Y6959D01*
X5618Y6978D01*
X5638Y7003D01*
X5650Y7032D01*
X5654Y7064D01*
X5650Y7095D01*
X5638Y7124D01*
X5618Y7149D01*
X5593Y7169D01*
X5564Y7181D01*
X5542Y7184D01*
X5536Y7184D01*
Y7197D01*
X5542Y7198D01*
X5564Y7201D01*
X5593Y7213D01*
X5618Y7232D01*
X5638Y7257D01*
X5650Y7286D01*
X5654Y7318D01*
X5650Y7349D01*
X5638Y7378D01*
X5618Y7403D01*
X5593Y7423D01*
X5564Y7435D01*
X5542Y7438D01*
X5536Y7438D01*
Y7451D01*
X5542Y7452D01*
X5564Y7455D01*
X5593Y7467D01*
X5618Y7486D01*
X5638Y7511D01*
X5650Y7540D01*
X5654Y7572D01*
X5650Y7603D01*
X5638Y7632D01*
X5618Y7657D01*
X5593Y7677D01*
X5564Y7689D01*
X5542Y7692D01*
X5536Y7692D01*
Y7705D01*
X5542Y7706D01*
X5564Y7709D01*
X5593Y7721D01*
X5618Y7740D01*
X5638Y7765D01*
X5650Y7794D01*
X5654Y7826D01*
X5650Y7857D01*
X5644Y7872D01*
X6126Y8354D01*
X6381D01*
X6383Y8340D01*
X6396Y8321D01*
X6415Y8308D01*
X6424Y8306D01*
Y8294D01*
X6415Y8292D01*
X6396Y8279D01*
X6383Y8260D01*
X6379Y8238D01*
Y8162D01*
X6383Y8140D01*
X6396Y8121D01*
X6415Y8108D01*
X6438Y8104D01*
X6562D01*
X6585Y8108D01*
X6604Y8121D01*
X6617Y8140D01*
X6621Y8162D01*
Y8238D01*
X6617Y8260D01*
X6604Y8279D01*
X6585Y8292D01*
X6576Y8294D01*
Y8306D01*
X6585Y8308D01*
X6604Y8321D01*
X6617Y8340D01*
X6619Y8354D01*
X7081D01*
X7083Y8340D01*
X7096Y8321D01*
X7115Y8308D01*
X7124Y8306D01*
Y8294D01*
X7115Y8292D01*
X7096Y8279D01*
X7083Y8260D01*
X7079Y8238D01*
Y8162D01*
X7083Y8140D01*
X7096Y8121D01*
X7115Y8108D01*
X7138Y8104D01*
X7262D01*
X7285Y8108D01*
X7304Y8121D01*
X7317Y8140D01*
X7321Y8162D01*
Y8238D01*
X7317Y8260D01*
X7304Y8279D01*
X7285Y8292D01*
X7276Y8294D01*
Y8306D01*
X7285Y8308D01*
X7304Y8321D01*
X7317Y8340D01*
X7319Y8354D01*
X7781D01*
X7783Y8340D01*
X7796Y8321D01*
X7815Y8308D01*
X7824Y8306D01*
Y8294D01*
X7815Y8292D01*
X7796Y8279D01*
X7783Y8260D01*
X7779Y8238D01*
Y8162D01*
X7783Y8140D01*
X7796Y8121D01*
X7815Y8108D01*
X7838Y8104D01*
X7962D01*
X7985Y8108D01*
X8004Y8121D01*
X8017Y8140D01*
X8021Y8162D01*
Y8238D01*
X8017Y8260D01*
X8004Y8279D01*
X7985Y8292D01*
X7976Y8294D01*
Y8306D01*
X7985Y8308D01*
X8004Y8321D01*
X8017Y8340D01*
X8021Y8362D01*
Y8438D01*
X8017Y8460D01*
X8004Y8479D01*
X7985Y8492D01*
X7976Y8494D01*
Y8506D01*
X7985Y8508D01*
X8004Y8521D01*
X8017Y8540D01*
X8021Y8562D01*
Y8638D01*
X8017Y8660D01*
X8004Y8679D01*
X7987Y8690D01*
X7987Y8700D01*
X7988Y8704D01*
X8008Y8717D01*
X8022Y8738D01*
X8027Y8762D01*
Y8780D01*
X7900D01*
X7773D01*
Y8762D01*
X7778Y8738D01*
X7792Y8717D01*
X7812Y8704D01*
X7813Y8700D01*
X7813Y8690D01*
X7796Y8679D01*
X7783Y8660D01*
X7781Y8646D01*
X7319D01*
X7317Y8660D01*
X7304Y8679D01*
X7287Y8690D01*
X7287Y8700D01*
X7288Y8704D01*
X7308Y8717D01*
X7322Y8738D01*
X7327Y8762D01*
Y8780D01*
X7200D01*
X7073D01*
Y8762D01*
X7078Y8738D01*
X7092Y8717D01*
X7112Y8704D01*
X7113Y8700D01*
X7113Y8690D01*
X7096Y8679D01*
X7083Y8660D01*
X7081Y8646D01*
X6619D01*
X6617Y8660D01*
X6604Y8679D01*
X6587Y8690D01*
X6587Y8700D01*
X6588Y8704D01*
X6608Y8717D01*
X6622Y8738D01*
X6627Y8762D01*
Y8780D01*
D02*
G37*
G36*
X7262Y7496D02*
X7138D01*
X7115Y7492D01*
X7096Y7479D01*
X7083Y7460D01*
X7079Y7438D01*
Y7362D01*
X7083Y7340D01*
X7096Y7321D01*
X7115Y7308D01*
X7124Y7306D01*
Y7294D01*
X7115Y7292D01*
X7096Y7279D01*
X7083Y7260D01*
X7079Y7238D01*
Y7162D01*
X7083Y7140D01*
X7096Y7121D01*
X7113Y7110D01*
X7113Y7100D01*
X7112Y7096D01*
X7092Y7083D01*
X7078Y7062D01*
X7073Y7038D01*
Y7020D01*
X7200D01*
X7327D01*
Y7038D01*
X7322Y7062D01*
X7308Y7083D01*
X7288Y7096D01*
X7287Y7100D01*
X7287Y7110D01*
X7304Y7121D01*
X7317Y7140D01*
X7321Y7162D01*
Y7238D01*
X7317Y7260D01*
X7304Y7279D01*
X7285Y7292D01*
X7276Y7294D01*
Y7306D01*
X7285Y7308D01*
X7304Y7321D01*
X7317Y7340D01*
X7321Y7362D01*
Y7438D01*
X7317Y7460D01*
X7304Y7479D01*
X7285Y7492D01*
X7262Y7496D01*
D02*
G37*
G36*
X8004Y7021D02*
X7973Y7017D01*
X7943Y7005D01*
X7918Y6986D01*
X7899Y6961D01*
X7887Y6931D01*
X7884Y6909D01*
X7883Y6903D01*
X7871D01*
X7870Y6909D01*
X7867Y6931D01*
X7855Y6961D01*
X7836Y6986D01*
X7811Y7005D01*
X7781Y7017D01*
X7750Y7021D01*
X7719Y7017D01*
X7689Y7005D01*
X7664Y6986D01*
X7645Y6961D01*
X7633Y6931D01*
X7629Y6900D01*
X7633Y6869D01*
X7645Y6839D01*
X7664Y6814D01*
X7689Y6795D01*
X7719Y6783D01*
X7741Y6780D01*
X7747Y6779D01*
Y6767D01*
X7741Y6766D01*
X7719Y6763D01*
X7689Y6751D01*
X7664Y6732D01*
X7645Y6707D01*
X7633Y6677D01*
X7629Y6646D01*
X7633Y6615D01*
X7645Y6585D01*
X7664Y6560D01*
X7689Y6541D01*
X7719Y6529D01*
X7726Y6528D01*
Y6515D01*
X7717Y6514D01*
X7687Y6502D01*
X7661Y6481D01*
X7640Y6455D01*
X7628Y6425D01*
X7626Y6412D01*
X7750D01*
Y6392D01*
X7770D01*
Y6268D01*
X7783Y6270D01*
X7813Y6282D01*
X7839Y6303D01*
X7860Y6329D01*
X7870Y6354D01*
X7884D01*
X7894Y6329D01*
X7915Y6303D01*
X7941Y6282D01*
X7971Y6270D01*
X7984Y6268D01*
Y6392D01*
X8004D01*
Y6412D01*
X8128D01*
X8126Y6425D01*
X8114Y6455D01*
X8093Y6481D01*
X8067Y6502D01*
X8037Y6514D01*
X8028Y6515D01*
Y6528D01*
X8035Y6529D01*
X8065Y6541D01*
X8090Y6560D01*
X8109Y6585D01*
X8121Y6615D01*
X8125Y6646D01*
X8121Y6677D01*
X8109Y6707D01*
X8090Y6732D01*
X8065Y6751D01*
X8035Y6763D01*
X8013Y6766D01*
X8007Y6767D01*
Y6779D01*
X8013Y6780D01*
X8035Y6783D01*
X8065Y6795D01*
X8090Y6814D01*
X8109Y6839D01*
X8121Y6869D01*
X8125Y6900D01*
X8121Y6931D01*
X8109Y6961D01*
X8090Y6986D01*
X8065Y7005D01*
X8035Y7017D01*
X8004Y7021D01*
D02*
G37*
G36*
X7327Y6980D02*
X7220D01*
Y6898D01*
X7262D01*
X7287Y6903D01*
X7308Y6917D01*
X7322Y6938D01*
X7327Y6962D01*
Y6980D01*
D02*
G37*
G36*
X7180D02*
X7073D01*
Y6962D01*
X7078Y6938D01*
X7092Y6917D01*
X7113Y6903D01*
X7138Y6898D01*
X7180D01*
Y6980D01*
D02*
G37*
G36*
X6627Y6980D02*
X6520D01*
Y6898D01*
X6562D01*
X6587Y6903D01*
X6608Y6917D01*
X6622Y6938D01*
X6627Y6962D01*
Y6980D01*
D02*
G37*
G36*
X6480D02*
X6373D01*
Y6962D01*
X6378Y6938D01*
X6392Y6917D01*
X6413Y6903D01*
X6438Y6898D01*
X6480D01*
Y6980D01*
D02*
G37*
G36*
X8128Y6372D02*
X8024D01*
Y6268D01*
X8037Y6270D01*
X8067Y6282D01*
X8093Y6303D01*
X8114Y6329D01*
X8126Y6359D01*
X8128Y6372D01*
D02*
G37*
G36*
X7730D02*
X7626D01*
X7628Y6359D01*
X7640Y6329D01*
X7661Y6303D01*
X7687Y6282D01*
X7717Y6270D01*
X7730Y6268D01*
Y6372D01*
D02*
G37*
G36*
X8262Y5670D02*
X8249Y5668D01*
X8219Y5656D01*
X8193Y5635D01*
X8172Y5609D01*
X8160Y5579D01*
X8159Y5570D01*
X8146D01*
X8145Y5577D01*
X8133Y5607D01*
X8114Y5632D01*
X8089Y5651D01*
X8059Y5663D01*
X8028Y5667D01*
X7997Y5663D01*
X7967Y5651D01*
X7942Y5632D01*
X7923Y5607D01*
X7911Y5577D01*
X7908Y5555D01*
X7907Y5549D01*
X7895D01*
X7894Y5555D01*
X7891Y5577D01*
X7879Y5607D01*
X7860Y5632D01*
X7835Y5651D01*
X7805Y5663D01*
X7774Y5667D01*
X7743Y5663D01*
X7713Y5651D01*
X7688Y5632D01*
X7669Y5607D01*
X7657Y5577D01*
X7653Y5546D01*
X7657Y5515D01*
X7669Y5485D01*
X7688Y5460D01*
X7713Y5441D01*
X7743Y5429D01*
X7765Y5426D01*
X7771Y5425D01*
Y5413D01*
X7765Y5412D01*
X7743Y5409D01*
X7713Y5397D01*
X7688Y5378D01*
X7669Y5353D01*
X7657Y5323D01*
X7653Y5292D01*
X7657Y5261D01*
X7669Y5231D01*
X7688Y5206D01*
X7713Y5187D01*
X7743Y5175D01*
X7765Y5172D01*
X7771Y5171D01*
Y5159D01*
X7765Y5158D01*
X7743Y5155D01*
X7713Y5143D01*
X7688Y5124D01*
X7669Y5099D01*
X7657Y5069D01*
X7653Y5038D01*
X7657Y5007D01*
X7669Y4977D01*
X7688Y4952D01*
X7713Y4933D01*
X7743Y4921D01*
X7774Y4917D01*
X7805Y4921D01*
X7835Y4933D01*
X7860Y4952D01*
X7879Y4977D01*
X7891Y5007D01*
X7894Y5029D01*
X7895Y5035D01*
X7907D01*
X7908Y5029D01*
X7911Y5007D01*
X7923Y4977D01*
X7942Y4952D01*
X7967Y4933D01*
X7997Y4921D01*
X8028Y4917D01*
X8059Y4921D01*
X8089Y4933D01*
X8114Y4952D01*
X8133Y4977D01*
X8145Y5007D01*
X8146Y5014D01*
X8159D01*
X8160Y5005D01*
X8172Y4975D01*
X8193Y4949D01*
X8219Y4928D01*
X8249Y4916D01*
X8262Y4914D01*
Y5038D01*
X8282D01*
Y5058D01*
X8406D01*
X8404Y5071D01*
X8392Y5101D01*
X8371Y5127D01*
X8345Y5148D01*
X8328Y5155D01*
Y5175D01*
X8345Y5182D01*
X8371Y5203D01*
X8392Y5229D01*
X8404Y5259D01*
X8406Y5272D01*
X8282D01*
Y5312D01*
X8406D01*
X8404Y5325D01*
X8392Y5355D01*
X8371Y5381D01*
X8345Y5402D01*
X8328Y5409D01*
Y5429D01*
X8345Y5436D01*
X8371Y5457D01*
X8392Y5483D01*
X8404Y5513D01*
X8406Y5526D01*
X8282D01*
Y5546D01*
X8262D01*
Y5670D01*
D02*
G37*
G36*
X8302D02*
Y5566D01*
X8406D01*
X8404Y5579D01*
X8392Y5609D01*
X8371Y5635D01*
X8345Y5656D01*
X8315Y5668D01*
X8302Y5670D01*
D02*
G37*
G36*
X7327Y5380D02*
X7220D01*
Y5298D01*
X7262D01*
X7287Y5303D01*
X7308Y5317D01*
X7322Y5338D01*
X7327Y5362D01*
Y5380D01*
D02*
G37*
G36*
X7180D02*
X7073D01*
Y5362D01*
X7078Y5338D01*
X7092Y5317D01*
X7113Y5303D01*
X7138Y5298D01*
X7180D01*
Y5380D01*
D02*
G37*
G36*
X6627Y5380D02*
X6520D01*
Y5298D01*
X6562D01*
X6587Y5303D01*
X6608Y5317D01*
X6622Y5338D01*
X6627Y5362D01*
Y5380D01*
D02*
G37*
G36*
X6480D02*
X6373D01*
Y5362D01*
X6378Y5338D01*
X6392Y5317D01*
X6413Y5303D01*
X6438Y5298D01*
X6480D01*
Y5380D01*
D02*
G37*
G36*
X8406Y5018D02*
X8302D01*
Y4914D01*
X8315Y4916D01*
X8345Y4928D01*
X8371Y4949D01*
X8392Y4975D01*
X8404Y5005D01*
X8406Y5018D01*
D02*
G37*
G36*
X7962Y4502D02*
X7920D01*
Y4420D01*
X8027D01*
Y4438D01*
X8022Y4462D01*
X8008Y4483D01*
X7987Y4497D01*
X7962Y4502D01*
D02*
G37*
G36*
X7880D02*
X7838D01*
X7813Y4497D01*
X7792Y4483D01*
X7778Y4462D01*
X7773Y4438D01*
Y4420D01*
X7880D01*
Y4502D01*
D02*
G37*
G36*
X7262Y4496D02*
X7138D01*
X7115Y4492D01*
X7096Y4479D01*
X7083Y4460D01*
X7079Y4438D01*
Y4362D01*
X7083Y4340D01*
X7096Y4321D01*
X7115Y4308D01*
X7124Y4306D01*
Y4294D01*
X7115Y4292D01*
X7096Y4279D01*
X7083Y4260D01*
X7079Y4238D01*
Y4162D01*
X7083Y4140D01*
X7096Y4121D01*
X7113Y4110D01*
X7113Y4100D01*
X7112Y4096D01*
X7092Y4083D01*
X7078Y4062D01*
X7073Y4038D01*
Y4020D01*
X7200D01*
X7327D01*
Y4038D01*
X7322Y4062D01*
X7308Y4083D01*
X7288Y4096D01*
X7287Y4100D01*
X7287Y4110D01*
X7304Y4121D01*
X7317Y4140D01*
X7321Y4162D01*
Y4238D01*
X7317Y4260D01*
X7304Y4279D01*
X7285Y4292D01*
X7276Y4294D01*
Y4306D01*
X7285Y4308D01*
X7304Y4321D01*
X7317Y4340D01*
X7321Y4362D01*
Y4438D01*
X7317Y4460D01*
X7304Y4479D01*
X7285Y4492D01*
X7262Y4496D01*
D02*
G37*
G36*
X8027Y3980D02*
X7920D01*
Y3898D01*
X7962D01*
X7987Y3903D01*
X8008Y3917D01*
X8022Y3938D01*
X8027Y3962D01*
Y3980D01*
D02*
G37*
G36*
X7880D02*
X7773D01*
Y3962D01*
X7778Y3938D01*
X7792Y3917D01*
X7813Y3903D01*
X7838Y3898D01*
X7880D01*
Y3980D01*
D02*
G37*
G36*
X7327Y3980D02*
X7220D01*
Y3898D01*
X7262D01*
X7287Y3903D01*
X7308Y3917D01*
X7322Y3938D01*
X7327Y3962D01*
Y3980D01*
D02*
G37*
G36*
X7180D02*
X7073D01*
Y3962D01*
X7078Y3938D01*
X7092Y3917D01*
X7113Y3903D01*
X7138Y3898D01*
X7180D01*
Y3980D01*
D02*
G37*
G36*
X6562Y4496D02*
X6438D01*
X6415Y4492D01*
X6396Y4479D01*
X6383Y4460D01*
X6379Y4438D01*
Y4362D01*
X6383Y4340D01*
X6396Y4321D01*
X6415Y4308D01*
X6424Y4306D01*
Y4294D01*
X6415Y4292D01*
X6396Y4279D01*
X6383Y4260D01*
X6379Y4238D01*
Y4162D01*
X6383Y4140D01*
X6396Y4121D01*
X6415Y4108D01*
X6424Y4106D01*
Y4094D01*
X6415Y4092D01*
X6396Y4079D01*
X6383Y4060D01*
X6379Y4038D01*
Y3962D01*
X6383Y3940D01*
X6396Y3921D01*
X6413Y3910D01*
X6413Y3900D01*
X6412Y3896D01*
X6392Y3883D01*
X6378Y3862D01*
X6373Y3838D01*
Y3820D01*
X6500D01*
X6627D01*
Y3838D01*
X6622Y3862D01*
X6608Y3883D01*
X6588Y3896D01*
X6587Y3900D01*
X6587Y3910D01*
X6604Y3921D01*
X6617Y3940D01*
X6621Y3962D01*
Y4038D01*
X6617Y4060D01*
X6604Y4079D01*
X6585Y4092D01*
X6576Y4094D01*
Y4106D01*
X6585Y4108D01*
X6604Y4121D01*
X6617Y4140D01*
X6621Y4162D01*
Y4238D01*
X6617Y4260D01*
X6604Y4279D01*
X6585Y4292D01*
X6576Y4294D01*
Y4306D01*
X6585Y4308D01*
X6604Y4321D01*
X6617Y4340D01*
X6621Y4362D01*
Y4438D01*
X6617Y4460D01*
X6604Y4479D01*
X6585Y4492D01*
X6562Y4496D01*
D02*
G37*
G36*
X4135Y3995D02*
X4011D01*
X3888D01*
X3889Y3982D01*
X3902Y3951D01*
X3922Y3925D01*
X3948Y3905D01*
X3974Y3894D01*
Y3881D01*
X3948Y3870D01*
X3922Y3850D01*
X3902Y3824D01*
X3889Y3793D01*
X3888Y3781D01*
X4011D01*
X4135D01*
X4134Y3793D01*
X4121Y3824D01*
X4101Y3850D01*
X4075Y3870D01*
X4049Y3881D01*
Y3894D01*
X4075Y3905D01*
X4101Y3925D01*
X4121Y3951D01*
X4134Y3982D01*
X4135Y3995D01*
D02*
G37*
G36*
X6627Y3780D02*
X6520D01*
Y3698D01*
X6562D01*
X6587Y3703D01*
X6608Y3717D01*
X6622Y3738D01*
X6627Y3762D01*
Y3780D01*
D02*
G37*
G36*
X6480D02*
X6373D01*
Y3762D01*
X6378Y3738D01*
X6392Y3717D01*
X6413Y3703D01*
X6438Y3698D01*
X6480D01*
Y3780D01*
D02*
G37*
G36*
X4135Y3741D02*
X4031D01*
Y3637D01*
X4044Y3638D01*
X4075Y3651D01*
X4101Y3671D01*
X4121Y3697D01*
X4134Y3728D01*
X4135Y3741D01*
D02*
G37*
G36*
X3991D02*
X3888D01*
X3889Y3728D01*
X3902Y3697D01*
X3922Y3671D01*
X3948Y3651D01*
X3979Y3638D01*
X3991Y3637D01*
Y3741D01*
D02*
G37*
G36*
X4826Y5100D02*
X4572D01*
X4564Y5099D01*
X4558Y5094D01*
X4553Y5088D01*
X4552Y5080D01*
Y3048D01*
X4553Y3040D01*
X4558Y3034D01*
X4564Y3029D01*
X4572Y3028D01*
X4826D01*
X4834Y3029D01*
X4840Y3034D01*
X4845Y3040D01*
X4846Y3048D01*
Y5080D01*
X4845Y5088D01*
X4840Y5094D01*
X4834Y5099D01*
X4826Y5100D01*
D02*
G37*
%LPD*%
G36*
Y3048D02*
X4572D01*
Y5080D01*
X4826D01*
Y3048D01*
D02*
G37*
%LPC*%
G36*
X4719Y5040D02*
Y4973D01*
X4786D01*
X4786Y4976D01*
X4777Y4998D01*
X4762Y5016D01*
X4744Y5031D01*
X4722Y5040D01*
X4719Y5040D01*
D02*
G37*
G36*
X4679D02*
X4676Y5040D01*
X4654Y5031D01*
X4636Y5016D01*
X4621Y4998D01*
X4612Y4976D01*
X4612Y4973D01*
X4679D01*
Y5040D01*
D02*
G37*
G36*
X4786Y4933D02*
X4719D01*
Y4866D01*
X4722Y4866D01*
X4744Y4875D01*
X4762Y4890D01*
X4777Y4908D01*
X4786Y4930D01*
X4786Y4933D01*
D02*
G37*
G36*
X4679D02*
X4612D01*
X4612Y4930D01*
X4621Y4908D01*
X4636Y4890D01*
X4654Y4875D01*
X4676Y4866D01*
X4679Y4866D01*
Y4933D01*
D02*
G37*
G36*
X4719Y3262D02*
Y3195D01*
X4786D01*
X4786Y3198D01*
X4777Y3220D01*
X4762Y3238D01*
X4744Y3253D01*
X4722Y3262D01*
X4719Y3262D01*
D02*
G37*
G36*
X4679D02*
X4676Y3262D01*
X4654Y3253D01*
X4636Y3238D01*
X4621Y3220D01*
X4612Y3198D01*
X4612Y3195D01*
X4679D01*
Y3262D01*
D02*
G37*
G36*
X4786Y3155D02*
X4719D01*
Y3088D01*
X4722Y3088D01*
X4744Y3097D01*
X4762Y3112D01*
X4777Y3130D01*
X4786Y3152D01*
X4786Y3155D01*
D02*
G37*
G36*
X4679D02*
X4612D01*
X4612Y3152D01*
X4621Y3130D01*
X4636Y3112D01*
X4654Y3097D01*
X4676Y3088D01*
X4679Y3088D01*
Y3155D01*
D02*
G37*
%LPD*%
D13*
X4826Y8636D02*
X4953D01*
X5509Y8080D01*
X5533D01*
X6300Y4600D02*
X6842Y5142D01*
X6300Y4000D02*
Y4600D01*
X6842Y5142D02*
Y5145D01*
X4011Y6047D02*
X5000Y5058D01*
Y3650D02*
Y5058D01*
X6908Y5208D02*
X7000Y5300D01*
X6905Y5208D02*
X6908D01*
X6842Y5145D02*
X6905Y5208D01*
X6950Y4950D02*
Y5100D01*
Y4950D02*
X7700Y4200D01*
X7900D01*
X4011Y4739D02*
Y4777D01*
Y4739D02*
X4450Y4300D01*
X4011Y5031D02*
X4019D01*
X4450Y4600D01*
X5650Y3350D02*
X6300Y4000D01*
X4011Y6047D02*
X4053D01*
X6450Y6200D02*
X6500D01*
X5900Y5650D02*
X6450Y6200D01*
X5900Y5145D02*
Y5650D01*
X5533Y4778D02*
X5900Y5145D01*
X7150Y5600D02*
X7200D01*
X7000Y5450D02*
X7150Y5600D01*
X7000Y5300D02*
Y5450D01*
X6850Y5300D02*
Y5500D01*
X6200Y4650D02*
X6850Y5300D01*
X6200Y4023D02*
Y4650D01*
X5300Y3350D02*
X5650D01*
X5000Y3650D02*
X5300Y3350D01*
X5340Y3460D02*
X5637D01*
X5100Y3700D02*
X5340Y3460D01*
X5100Y3700D02*
Y5212D01*
X4011Y6301D02*
X5100Y5212D01*
X6450Y5800D02*
X6500D01*
X6000Y5350D02*
X6450Y5800D01*
X6000Y4021D02*
Y5350D01*
X5579Y3600D02*
X6000Y4021D01*
X6100Y5300D02*
X6400Y5600D01*
X6100Y4022D02*
Y5300D01*
X5608Y3530D02*
X6100Y4022D01*
X6400Y5600D02*
X6500D01*
X7150Y5800D02*
X7200D01*
X6850Y5500D02*
X7150Y5800D01*
X5637Y3460D02*
X6200Y4023D01*
X5370Y3530D02*
X5608D01*
X5200Y3700D02*
X5370Y3530D01*
X5400Y3600D02*
X5579D01*
X5300Y3700D02*
X5400Y3600D01*
X5200Y3700D02*
Y5366D01*
X6177Y7200D02*
X6500D01*
X5533Y6556D02*
X6177Y7200D01*
X6123Y7400D02*
X6500D01*
X5533Y6810D02*
X6123Y7400D01*
X5300Y3700D02*
Y5520D01*
X4011Y6555D02*
X5200Y5366D01*
X4011Y6809D02*
X5300Y5520D01*
X8282Y5292D02*
Y5546D01*
Y5038D02*
Y5292D01*
X5533Y7826D02*
X6107Y8400D01*
X6500D01*
X7200D01*
X7900D01*
X6500Y8600D02*
X7200D01*
X7900D01*
D19*
X6096Y9652D02*
D03*
X5334D02*
D03*
X5080D02*
D03*
X4826D02*
D03*
X8282Y5038D02*
D03*
Y5292D02*
D03*
Y5546D02*
D03*
X7774D02*
D03*
Y5292D02*
D03*
Y5038D02*
D03*
X8028Y5546D02*
D03*
Y5292D02*
D03*
Y5038D02*
D03*
X8004Y6392D02*
D03*
Y6646D02*
D03*
Y6900D02*
D03*
X7750Y6392D02*
D03*
Y6646D02*
D03*
Y6900D02*
D03*
D20*
X7900Y8400D02*
D03*
Y8600D02*
D03*
Y8800D02*
D03*
Y9000D02*
D03*
Y8200D02*
D03*
X7200Y8400D02*
D03*
Y8600D02*
D03*
Y8800D02*
D03*
Y9000D02*
D03*
Y8200D02*
D03*
X6500Y8400D02*
D03*
Y8600D02*
D03*
Y8800D02*
D03*
Y9000D02*
D03*
Y8200D02*
D03*
X7200Y7000D02*
D03*
Y7200D02*
D03*
Y7400D02*
D03*
X6500Y7000D02*
D03*
Y7200D02*
D03*
Y7400D02*
D03*
X7200Y5600D02*
D03*
Y5800D02*
D03*
Y6000D02*
D03*
Y6200D02*
D03*
Y5400D02*
D03*
X6500Y5600D02*
D03*
Y5800D02*
D03*
Y6000D02*
D03*
Y6200D02*
D03*
Y5400D02*
D03*
X7900Y4000D02*
D03*
Y4200D02*
D03*
Y4400D02*
D03*
X6500Y3800D02*
D03*
Y4000D02*
D03*
Y4200D02*
D03*
Y4400D02*
D03*
X7200Y4000D02*
D03*
Y4200D02*
D03*
Y4400D02*
D03*
D21*
X8250Y9750D02*
D03*
Y3000D02*
D03*
X4000D02*
D03*
Y9750D02*
D03*
D22*
X5533Y7826D02*
D03*
Y8080D02*
D03*
Y8588D02*
D03*
Y7572D02*
D03*
Y8334D02*
D03*
Y7318D02*
D03*
X4011Y4777D02*
D03*
Y3761D02*
D03*
Y4523D02*
D03*
Y4269D02*
D03*
Y4015D02*
D03*
Y5031D02*
D03*
Y5285D02*
D03*
Y5793D02*
D03*
Y6047D02*
D03*
Y6301D02*
D03*
Y5539D02*
D03*
Y6555D02*
D03*
Y7063D02*
D03*
Y8587D02*
D03*
Y8333D02*
D03*
Y8079D02*
D03*
Y7825D02*
D03*
Y6809D02*
D03*
Y7571D02*
D03*
Y7317D02*
D03*
X5533Y4778D02*
D03*
Y3759D02*
D03*
Y4524D02*
D03*
Y4270D02*
D03*
Y4016D02*
D03*
Y5032D02*
D03*
Y6302D02*
D03*
Y7064D02*
D03*
Y6810D02*
D03*
Y6556D02*
D03*
Y6048D02*
D03*
Y5794D02*
D03*
Y5540D02*
D03*
Y5286D02*
D03*
D23*
X4699Y4953D02*
D03*
Y3175D02*
D03*
X4826Y8636D02*
D03*
X6950Y5100D02*
D03*
X4450Y4300D02*
D03*
Y4600D02*
D03*
M02*
